<mxfile host="www.draw.io" modified="2020-02-09T23:09:22.187Z" agent="Mozilla/5.0 (Macintosh; Intel Mac OS X 10_12_6) AppleWebKit/537.36 (KHTML, like Gecko) Chrome/80.0.3987.87 Safari/537.36" etag="rBa5Q-dq8qREesj-X5TF" version="12.6.6" type="github">
  <diagram id="C5RBs43oDa-KdzZeNtuy" name="Page-1">
    <mxGraphModel dx="946" dy="646" grid="1" gridSize="10" guides="1" tooltips="1" connect="1" arrows="1" fold="1" page="1" pageScale="1" pageWidth="850" pageHeight="1400" background="#FFFFCC" math="0" shadow="1">
      <root>
        <mxCell id="WIyWlLk6GJQsqaUBKTNV-0"/>
        <mxCell id="WIyWlLk6GJQsqaUBKTNV-1" parent="WIyWlLk6GJQsqaUBKTNV-0"/>
        <mxCell id="366UzDetPdFdMRulW-qi-64" style="edgeStyle=orthogonalEdgeStyle;rounded=0;orthogonalLoop=1;jettySize=auto;html=1;" parent="WIyWlLk6GJQsqaUBKTNV-1" source="WIyWlLk6GJQsqaUBKTNV-6" edge="1">
          <mxGeometry relative="1" as="geometry">
            <mxPoint x="225" y="340" as="targetPoint"/>
          </mxGeometry>
        </mxCell>
        <mxCell id="WIyWlLk6GJQsqaUBKTNV-6" value="Jenkins-to-DMS-Ticket-12345" style="rhombus;whiteSpace=wrap;html=1;shadow=0;fontFamily=Helvetica;fontSize=12;align=center;strokeWidth=1;spacing=6;spacingTop=-4;" parent="WIyWlLk6GJQsqaUBKTNV-1" vertex="1">
          <mxGeometry x="170" y="170" width="110" height="80" as="geometry"/>
        </mxCell>
        <mxCell id="WIyWlLk6GJQsqaUBKTNV-8" value="" style="rounded=0;html=1;jettySize=auto;orthogonalLoop=1;fontSize=11;endArrow=block;endFill=0;endSize=8;strokeWidth=1;shadow=0;labelBackgroundColor=none;edgeStyle=orthogonalEdgeStyle;" parent="WIyWlLk6GJQsqaUBKTNV-1" source="WIyWlLk6GJQsqaUBKTNV-10" target="WIyWlLk6GJQsqaUBKTNV-11" edge="1">
          <mxGeometry x="0.3333" y="20" relative="1" as="geometry">
            <mxPoint as="offset"/>
          </mxGeometry>
        </mxCell>
        <mxCell id="366UzDetPdFdMRulW-qi-12" style="edgeStyle=orthogonalEdgeStyle;rounded=0;orthogonalLoop=1;jettySize=auto;html=1;" parent="WIyWlLk6GJQsqaUBKTNV-1" source="WIyWlLk6GJQsqaUBKTNV-10" edge="1">
          <mxGeometry relative="1" as="geometry">
            <mxPoint x="340" y="380" as="targetPoint"/>
          </mxGeometry>
        </mxCell>
        <mxCell id="WIyWlLk6GJQsqaUBKTNV-10" value="build" style="rhombus;whiteSpace=wrap;html=1;shadow=0;fontFamily=Helvetica;fontSize=12;align=center;strokeWidth=1;spacing=6;spacingTop=-4;" parent="WIyWlLk6GJQsqaUBKTNV-1" vertex="1">
          <mxGeometry x="170" y="340" width="100" height="80" as="geometry"/>
        </mxCell>
        <mxCell id="366UzDetPdFdMRulW-qi-27" style="edgeStyle=orthogonalEdgeStyle;rounded=0;orthogonalLoop=1;jettySize=auto;html=1;entryX=0.5;entryY=0;entryDx=0;entryDy=0;" parent="WIyWlLk6GJQsqaUBKTNV-1" source="WIyWlLk6GJQsqaUBKTNV-11" target="366UzDetPdFdMRulW-qi-1" edge="1">
          <mxGeometry relative="1" as="geometry"/>
        </mxCell>
        <mxCell id="WIyWlLk6GJQsqaUBKTNV-11" value="Run Unit Test" style="rounded=1;whiteSpace=wrap;html=1;fontSize=12;glass=0;strokeWidth=1;shadow=0;" parent="WIyWlLk6GJQsqaUBKTNV-1" vertex="1">
          <mxGeometry x="160" y="564" width="120" height="36" as="geometry"/>
        </mxCell>
        <mxCell id="366UzDetPdFdMRulW-qi-28" style="edgeStyle=orthogonalEdgeStyle;rounded=0;orthogonalLoop=1;jettySize=auto;html=1;exitX=0.5;exitY=1;exitDx=0;exitDy=0;" parent="WIyWlLk6GJQsqaUBKTNV-1" source="366UzDetPdFdMRulW-qi-1" target="366UzDetPdFdMRulW-qi-4" edge="1">
          <mxGeometry relative="1" as="geometry"/>
        </mxCell>
        <mxCell id="366UzDetPdFdMRulW-qi-87" value="" style="edgeStyle=orthogonalEdgeStyle;rounded=0;orthogonalLoop=1;jettySize=auto;html=1;entryX=0;entryY=0.75;entryDx=0;entryDy=0;" parent="WIyWlLk6GJQsqaUBKTNV-1" source="366UzDetPdFdMRulW-qi-1" target="366UzDetPdFdMRulW-qi-82" edge="1">
          <mxGeometry relative="1" as="geometry">
            <mxPoint x="360" y="715" as="targetPoint"/>
          </mxGeometry>
        </mxCell>
        <mxCell id="366UzDetPdFdMRulW-qi-88" style="edgeStyle=orthogonalEdgeStyle;rounded=0;orthogonalLoop=1;jettySize=auto;html=1;entryX=0;entryY=0.5;entryDx=0;entryDy=0;" parent="WIyWlLk6GJQsqaUBKTNV-1" source="366UzDetPdFdMRulW-qi-1" target="366UzDetPdFdMRulW-qi-83" edge="1">
          <mxGeometry relative="1" as="geometry"/>
        </mxCell>
        <mxCell id="366UzDetPdFdMRulW-qi-1" value="Deploy" style="rounded=0;whiteSpace=wrap;html=1;" parent="WIyWlLk6GJQsqaUBKTNV-1" vertex="1">
          <mxGeometry x="160" y="700" width="120" height="30" as="geometry"/>
        </mxCell>
        <mxCell id="366UzDetPdFdMRulW-qi-50" style="edgeStyle=orthogonalEdgeStyle;rounded=0;orthogonalLoop=1;jettySize=auto;html=1;entryX=0.436;entryY=0.063;entryDx=0;entryDy=0;entryPerimeter=0;" parent="WIyWlLk6GJQsqaUBKTNV-1" source="366UzDetPdFdMRulW-qi-3" target="WIyWlLk6GJQsqaUBKTNV-6" edge="1">
          <mxGeometry relative="1" as="geometry"/>
        </mxCell>
        <mxCell id="366UzDetPdFdMRulW-qi-3" value="Ready-for-Testing" style="rounded=0;whiteSpace=wrap;html=1;" parent="WIyWlLk6GJQsqaUBKTNV-1" vertex="1">
          <mxGeometry x="165" y="90" width="105" height="30" as="geometry"/>
        </mxCell>
        <mxCell id="366UzDetPdFdMRulW-qi-29" style="edgeStyle=orthogonalEdgeStyle;rounded=0;orthogonalLoop=1;jettySize=auto;html=1;" parent="WIyWlLk6GJQsqaUBKTNV-1" source="366UzDetPdFdMRulW-qi-4" target="366UzDetPdFdMRulW-qi-7" edge="1">
          <mxGeometry relative="1" as="geometry"/>
        </mxCell>
        <mxCell id="366UzDetPdFdMRulW-qi-4" value="Run the Post Deploy&lt;br&gt;Test" style="rounded=0;whiteSpace=wrap;html=1;" parent="WIyWlLk6GJQsqaUBKTNV-1" vertex="1">
          <mxGeometry x="160" y="830" width="120" height="40" as="geometry"/>
        </mxCell>
        <mxCell id="366UzDetPdFdMRulW-qi-45" style="edgeStyle=orthogonalEdgeStyle;rounded=0;orthogonalLoop=1;jettySize=auto;html=1;entryX=0.5;entryY=0;entryDx=0;entryDy=0;" parent="WIyWlLk6GJQsqaUBKTNV-1" source="366UzDetPdFdMRulW-qi-7" target="366UzDetPdFdMRulW-qi-44" edge="1">
          <mxGeometry relative="1" as="geometry"/>
        </mxCell>
        <mxCell id="366UzDetPdFdMRulW-qi-7" value="Report-to-Jira" style="rounded=0;whiteSpace=wrap;html=1;" parent="WIyWlLk6GJQsqaUBKTNV-1" vertex="1">
          <mxGeometry x="160" y="930" width="120" height="30" as="geometry"/>
        </mxCell>
        <mxCell id="366UzDetPdFdMRulW-qi-15" style="edgeStyle=orthogonalEdgeStyle;rounded=0;orthogonalLoop=1;jettySize=auto;html=1;entryX=0.5;entryY=0;entryDx=0;entryDy=0;" parent="WIyWlLk6GJQsqaUBKTNV-1" source="366UzDetPdFdMRulW-qi-8" target="366UzDetPdFdMRulW-qi-13" edge="1">
          <mxGeometry relative="1" as="geometry"/>
        </mxCell>
        <mxCell id="366UzDetPdFdMRulW-qi-130" style="edgeStyle=orthogonalEdgeStyle;rounded=0;orthogonalLoop=1;jettySize=auto;html=1;" parent="WIyWlLk6GJQsqaUBKTNV-1" source="366UzDetPdFdMRulW-qi-8" edge="1">
          <mxGeometry relative="1" as="geometry">
            <mxPoint x="420" y="380" as="targetPoint"/>
          </mxGeometry>
        </mxCell>
        <mxCell id="366UzDetPdFdMRulW-qi-8" value="Source" style="rounded=0;whiteSpace=wrap;html=1;" parent="WIyWlLk6GJQsqaUBKTNV-1" vertex="1">
          <mxGeometry x="310" y="366" width="80" height="28" as="geometry"/>
        </mxCell>
        <mxCell id="366UzDetPdFdMRulW-qi-23" style="edgeStyle=orthogonalEdgeStyle;rounded=0;orthogonalLoop=1;jettySize=auto;html=1;entryX=0.5;entryY=0;entryDx=0;entryDy=0;" parent="WIyWlLk6GJQsqaUBKTNV-1" source="366UzDetPdFdMRulW-qi-13" target="366UzDetPdFdMRulW-qi-14" edge="1">
          <mxGeometry relative="1" as="geometry"/>
        </mxCell>
        <mxCell id="366UzDetPdFdMRulW-qi-13" value="PullGit" style="rounded=0;whiteSpace=wrap;html=1;" parent="WIyWlLk6GJQsqaUBKTNV-1" vertex="1">
          <mxGeometry x="310" y="430" width="80" height="30" as="geometry"/>
        </mxCell>
        <mxCell id="366UzDetPdFdMRulW-qi-14" value="Push-to-S3" style="rounded=0;whiteSpace=wrap;html=1;" parent="WIyWlLk6GJQsqaUBKTNV-1" vertex="1">
          <mxGeometry x="310" y="505" width="80" height="30" as="geometry"/>
        </mxCell>
        <mxCell id="366UzDetPdFdMRulW-qi-103" style="edgeStyle=orthogonalEdgeStyle;rounded=0;orthogonalLoop=1;jettySize=auto;html=1;entryX=0.567;entryY=0.033;entryDx=0;entryDy=0;entryPerimeter=0;" parent="WIyWlLk6GJQsqaUBKTNV-1" source="366UzDetPdFdMRulW-qi-31" target="366UzDetPdFdMRulW-qi-32" edge="1">
          <mxGeometry relative="1" as="geometry">
            <Array as="points">
              <mxPoint x="828" y="270"/>
              <mxPoint x="828" y="270"/>
            </Array>
          </mxGeometry>
        </mxCell>
        <mxCell id="366UzDetPdFdMRulW-qi-31" value="Jenkins webhood-2" style="rhombus;whiteSpace=wrap;html=1;" parent="WIyWlLk6GJQsqaUBKTNV-1" vertex="1">
          <mxGeometry x="790" y="170" width="80" height="80" as="geometry"/>
        </mxCell>
        <mxCell id="366UzDetPdFdMRulW-qi-137" style="edgeStyle=orthogonalEdgeStyle;rounded=0;orthogonalLoop=1;jettySize=auto;html=1;entryX=0.375;entryY=0.038;entryDx=0;entryDy=0;entryPerimeter=0;" parent="WIyWlLk6GJQsqaUBKTNV-1" source="366UzDetPdFdMRulW-qi-32" target="366UzDetPdFdMRulW-qi-38" edge="1">
          <mxGeometry relative="1" as="geometry">
            <Array as="points">
              <mxPoint x="830" y="383"/>
            </Array>
          </mxGeometry>
        </mxCell>
        <mxCell id="366UzDetPdFdMRulW-qi-32" value="Merge-to-Master" style="rounded=0;whiteSpace=wrap;html=1;" parent="WIyWlLk6GJQsqaUBKTNV-1" vertex="1">
          <mxGeometry x="760" y="290" width="120" height="30" as="geometry"/>
        </mxCell>
        <mxCell id="366UzDetPdFdMRulW-qi-67" value="" style="edgeStyle=orthogonalEdgeStyle;rounded=0;orthogonalLoop=1;jettySize=auto;html=1;" parent="WIyWlLk6GJQsqaUBKTNV-1" source="366UzDetPdFdMRulW-qi-38" edge="1">
          <mxGeometry relative="1" as="geometry">
            <mxPoint x="930" y="420" as="targetPoint"/>
          </mxGeometry>
        </mxCell>
        <mxCell id="366UzDetPdFdMRulW-qi-106" style="edgeStyle=orthogonalEdgeStyle;rounded=0;orthogonalLoop=1;jettySize=auto;html=1;entryX=0.575;entryY=0.033;entryDx=0;entryDy=0;entryPerimeter=0;" parent="WIyWlLk6GJQsqaUBKTNV-1" source="366UzDetPdFdMRulW-qi-38" target="366UzDetPdFdMRulW-qi-41" edge="1">
          <mxGeometry relative="1" as="geometry"/>
        </mxCell>
        <mxCell id="366UzDetPdFdMRulW-qi-138" style="edgeStyle=orthogonalEdgeStyle;rounded=0;orthogonalLoop=1;jettySize=auto;html=1;exitX=0.5;exitY=0;exitDx=0;exitDy=0;" parent="WIyWlLk6GJQsqaUBKTNV-1" source="366UzDetPdFdMRulW-qi-38" edge="1">
          <mxGeometry relative="1" as="geometry">
            <mxPoint x="830" y="370" as="targetPoint"/>
          </mxGeometry>
        </mxCell>
        <mxCell id="366UzDetPdFdMRulW-qi-38" value="Build" style="rhombus;whiteSpace=wrap;html=1;" parent="WIyWlLk6GJQsqaUBKTNV-1" vertex="1">
          <mxGeometry x="790" y="380" width="80" height="80" as="geometry"/>
        </mxCell>
        <mxCell id="366UzDetPdFdMRulW-qi-135" style="edgeStyle=orthogonalEdgeStyle;rounded=0;orthogonalLoop=1;jettySize=auto;html=1;exitX=0.5;exitY=0;exitDx=0;exitDy=0;" parent="WIyWlLk6GJQsqaUBKTNV-1" source="366UzDetPdFdMRulW-qi-43" edge="1">
          <mxGeometry relative="1" as="geometry">
            <mxPoint x="830" y="710" as="targetPoint"/>
          </mxGeometry>
        </mxCell>
        <mxCell id="366UzDetPdFdMRulW-qi-43" value="Move-to-Final-Review" style="rounded=0;whiteSpace=wrap;html=1;" parent="WIyWlLk6GJQsqaUBKTNV-1" vertex="1">
          <mxGeometry x="770" y="720" width="120" height="35" as="geometry"/>
        </mxCell>
        <mxCell id="366UzDetPdFdMRulW-qi-109" style="edgeStyle=orthogonalEdgeStyle;rounded=0;orthogonalLoop=1;jettySize=auto;html=1;" parent="WIyWlLk6GJQsqaUBKTNV-1" source="366UzDetPdFdMRulW-qi-44" edge="1">
          <mxGeometry relative="1" as="geometry">
            <mxPoint x="730" y="210" as="targetPoint"/>
          </mxGeometry>
        </mxCell>
        <mxCell id="366UzDetPdFdMRulW-qi-44" value="Move-to-Integration" style="rounded=0;whiteSpace=wrap;html=1;" parent="WIyWlLk6GJQsqaUBKTNV-1" vertex="1">
          <mxGeometry x="160" y="1000" width="120" height="30" as="geometry"/>
        </mxCell>
        <mxCell id="366UzDetPdFdMRulW-qi-52" value="In-progress" style="text;html=1;align=center;verticalAlign=middle;resizable=0;points=[];autosize=1;" parent="WIyWlLk6GJQsqaUBKTNV-1" vertex="1">
          <mxGeometry x="280" y="200" width="80" height="20" as="geometry"/>
        </mxCell>
        <mxCell id="366UzDetPdFdMRulW-qi-65" value="Jenkins-webhook" style="text;html=1;align=center;verticalAlign=middle;resizable=0;points=[];autosize=1;" parent="WIyWlLk6GJQsqaUBKTNV-1" vertex="1">
          <mxGeometry x="270" y="95" width="110" height="20" as="geometry"/>
        </mxCell>
        <mxCell id="366UzDetPdFdMRulW-qi-69" value="success" style="text;html=1;align=center;verticalAlign=middle;resizable=0;points=[];autosize=1;" parent="WIyWlLk6GJQsqaUBKTNV-1" vertex="1">
          <mxGeometry x="860" y="394" width="60" height="20" as="geometry"/>
        </mxCell>
        <mxCell id="366UzDetPdFdMRulW-qi-76" value="Dev" style="rounded=0;whiteSpace=wrap;html=1;" parent="WIyWlLk6GJQsqaUBKTNV-1" vertex="1">
          <mxGeometry x="1010" y="515" width="50" height="20" as="geometry"/>
        </mxCell>
        <mxCell id="366UzDetPdFdMRulW-qi-75" style="edgeStyle=orthogonalEdgeStyle;rounded=0;orthogonalLoop=1;jettySize=auto;html=1;exitX=0.5;exitY=1;exitDx=0;exitDy=0;" parent="WIyWlLk6GJQsqaUBKTNV-1" edge="1">
          <mxGeometry relative="1" as="geometry">
            <mxPoint x="797" y="537.5" as="sourcePoint"/>
            <mxPoint x="797" y="537.5" as="targetPoint"/>
          </mxGeometry>
        </mxCell>
        <mxCell id="366UzDetPdFdMRulW-qi-78" value="&lt;font style=&quot;font-size: 35px&quot;&gt;+&lt;/font&gt;" style="text;html=1;align=center;verticalAlign=middle;resizable=0;points=[];autosize=1;" parent="WIyWlLk6GJQsqaUBKTNV-1" vertex="1">
          <mxGeometry x="970" y="510" width="40" height="30" as="geometry"/>
        </mxCell>
        <mxCell id="366UzDetPdFdMRulW-qi-82" value="Lamda" style="rounded=0;whiteSpace=wrap;html=1;" parent="WIyWlLk6GJQsqaUBKTNV-1" vertex="1">
          <mxGeometry x="330" y="670" width="90" height="30" as="geometry"/>
        </mxCell>
        <mxCell id="366UzDetPdFdMRulW-qi-83" value="CloudFormaton" style="rounded=0;whiteSpace=wrap;html=1;" parent="WIyWlLk6GJQsqaUBKTNV-1" vertex="1">
          <mxGeometry x="330" y="730" width="90" height="30" as="geometry"/>
        </mxCell>
        <mxCell id="366UzDetPdFdMRulW-qi-132" style="edgeStyle=orthogonalEdgeStyle;rounded=0;orthogonalLoop=1;jettySize=auto;html=1;exitX=1;exitY=0.5;exitDx=0;exitDy=0;entryX=0;entryY=0.75;entryDx=0;entryDy=0;" parent="WIyWlLk6GJQsqaUBKTNV-1" source="366UzDetPdFdMRulW-qi-41" target="366UzDetPdFdMRulW-qi-72" edge="1">
          <mxGeometry relative="1" as="geometry"/>
        </mxCell>
        <mxCell id="366UzDetPdFdMRulW-qi-133" style="edgeStyle=orthogonalEdgeStyle;rounded=0;orthogonalLoop=1;jettySize=auto;html=1;entryX=0.417;entryY=-0.033;entryDx=0;entryDy=0;entryPerimeter=0;" parent="WIyWlLk6GJQsqaUBKTNV-1" source="366UzDetPdFdMRulW-qi-41" target="366UzDetPdFdMRulW-qi-100" edge="1">
          <mxGeometry relative="1" as="geometry">
            <Array as="points">
              <mxPoint x="830" y="619"/>
            </Array>
          </mxGeometry>
        </mxCell>
        <mxCell id="366UzDetPdFdMRulW-qi-41" value="Deploy" style="rounded=0;whiteSpace=wrap;html=1;" parent="WIyWlLk6GJQsqaUBKTNV-1" vertex="1">
          <mxGeometry x="760" y="515" width="120" height="15" as="geometry"/>
        </mxCell>
        <mxCell id="366UzDetPdFdMRulW-qi-72" value="Pord" style="rounded=0;whiteSpace=wrap;html=1;" parent="WIyWlLk6GJQsqaUBKTNV-1" vertex="1">
          <mxGeometry x="920" y="515" width="50" height="20" as="geometry"/>
        </mxCell>
        <mxCell id="366UzDetPdFdMRulW-qi-134" style="edgeStyle=orthogonalEdgeStyle;rounded=0;orthogonalLoop=1;jettySize=auto;html=1;entryX=0.592;entryY=-0.114;entryDx=0;entryDy=0;entryPerimeter=0;" parent="WIyWlLk6GJQsqaUBKTNV-1" source="366UzDetPdFdMRulW-qi-100" target="366UzDetPdFdMRulW-qi-43" edge="1">
          <mxGeometry relative="1" as="geometry">
            <Array as="points">
              <mxPoint x="830" y="716"/>
            </Array>
          </mxGeometry>
        </mxCell>
        <mxCell id="366UzDetPdFdMRulW-qi-100" value="Report-to-Jira" style="rounded=0;whiteSpace=wrap;html=1;" parent="WIyWlLk6GJQsqaUBKTNV-1" vertex="1">
          <mxGeometry x="780" y="630" width="120" height="30" as="geometry"/>
        </mxCell>
        <mxCell id="366UzDetPdFdMRulW-qi-102" value="Release" style="rounded=0;whiteSpace=wrap;html=1;" parent="WIyWlLk6GJQsqaUBKTNV-1" vertex="1">
          <mxGeometry x="930" y="394" width="120" height="36" as="geometry"/>
        </mxCell>
        <mxCell id="366UzDetPdFdMRulW-qi-111" value="" style="endArrow=classic;html=1;entryX=0;entryY=0.5;entryDx=0;entryDy=0;" parent="WIyWlLk6GJQsqaUBKTNV-1" target="366UzDetPdFdMRulW-qi-31" edge="1">
          <mxGeometry width="50" height="50" relative="1" as="geometry">
            <mxPoint x="730" y="210" as="sourcePoint"/>
            <mxPoint x="780" y="170" as="targetPoint"/>
          </mxGeometry>
        </mxCell>
        <mxCell id="366UzDetPdFdMRulW-qi-129" style="edgeStyle=orthogonalEdgeStyle;rounded=0;orthogonalLoop=1;jettySize=auto;html=1;" parent="WIyWlLk6GJQsqaUBKTNV-1" source="366UzDetPdFdMRulW-qi-113" edge="1">
          <mxGeometry relative="1" as="geometry">
            <mxPoint x="540" y="378" as="targetPoint"/>
            <Array as="points">
              <mxPoint x="515" y="381"/>
              <mxPoint x="515" y="378"/>
            </Array>
          </mxGeometry>
        </mxCell>
        <mxCell id="366UzDetPdFdMRulW-qi-113" value="S3-Zip" style="rounded=0;whiteSpace=wrap;html=1;" parent="WIyWlLk6GJQsqaUBKTNV-1" vertex="1">
          <mxGeometry x="420" y="368.5" width="70" height="24" as="geometry"/>
        </mxCell>
        <mxCell id="366UzDetPdFdMRulW-qi-125" style="edgeStyle=orthogonalEdgeStyle;rounded=0;orthogonalLoop=1;jettySize=auto;html=1;exitX=0.5;exitY=1;exitDx=0;exitDy=0;entryX=0.5;entryY=0;entryDx=0;entryDy=0;" parent="WIyWlLk6GJQsqaUBKTNV-1" source="366UzDetPdFdMRulW-qi-114" target="366UzDetPdFdMRulW-qi-115" edge="1">
          <mxGeometry relative="1" as="geometry"/>
        </mxCell>
        <mxCell id="366UzDetPdFdMRulW-qi-114" value="Build-Relase" style="rounded=0;whiteSpace=wrap;html=1;" parent="WIyWlLk6GJQsqaUBKTNV-1" vertex="1">
          <mxGeometry x="540" y="367" width="90" height="27" as="geometry"/>
        </mxCell>
        <mxCell id="366UzDetPdFdMRulW-qi-126" style="edgeStyle=orthogonalEdgeStyle;rounded=0;orthogonalLoop=1;jettySize=auto;html=1;exitX=0.5;exitY=1;exitDx=0;exitDy=0;entryX=0.5;entryY=0;entryDx=0;entryDy=0;" parent="WIyWlLk6GJQsqaUBKTNV-1" source="366UzDetPdFdMRulW-qi-115" target="366UzDetPdFdMRulW-qi-116" edge="1">
          <mxGeometry relative="1" as="geometry"/>
        </mxCell>
        <mxCell id="366UzDetPdFdMRulW-qi-115" value="Pull-Zip" style="rounded=0;whiteSpace=wrap;html=1;" parent="WIyWlLk6GJQsqaUBKTNV-1" vertex="1">
          <mxGeometry x="550" y="430" width="90" height="20" as="geometry"/>
        </mxCell>
        <mxCell id="366UzDetPdFdMRulW-qi-118" value="" style="edgeStyle=orthogonalEdgeStyle;rounded=0;orthogonalLoop=1;jettySize=auto;html=1;" parent="WIyWlLk6GJQsqaUBKTNV-1" source="366UzDetPdFdMRulW-qi-116" target="366UzDetPdFdMRulW-qi-117" edge="1">
          <mxGeometry relative="1" as="geometry"/>
        </mxCell>
        <mxCell id="366UzDetPdFdMRulW-qi-116" value="Build" style="rounded=0;whiteSpace=wrap;html=1;" parent="WIyWlLk6GJQsqaUBKTNV-1" vertex="1">
          <mxGeometry x="550" y="485" width="90" height="25" as="geometry"/>
        </mxCell>
        <mxCell id="366UzDetPdFdMRulW-qi-120" value="" style="edgeStyle=orthogonalEdgeStyle;rounded=0;orthogonalLoop=1;jettySize=auto;html=1;" parent="WIyWlLk6GJQsqaUBKTNV-1" source="366UzDetPdFdMRulW-qi-117" target="366UzDetPdFdMRulW-qi-119" edge="1">
          <mxGeometry relative="1" as="geometry"/>
        </mxCell>
        <mxCell id="366UzDetPdFdMRulW-qi-117" value="Test" style="rounded=0;whiteSpace=wrap;html=1;" parent="WIyWlLk6GJQsqaUBKTNV-1" vertex="1">
          <mxGeometry x="550" y="550" width="90" height="25" as="geometry"/>
        </mxCell>
        <mxCell id="366UzDetPdFdMRulW-qi-127" style="edgeStyle=orthogonalEdgeStyle;rounded=0;orthogonalLoop=1;jettySize=auto;html=1;entryX=0.5;entryY=0;entryDx=0;entryDy=0;" parent="WIyWlLk6GJQsqaUBKTNV-1" source="366UzDetPdFdMRulW-qi-119" target="366UzDetPdFdMRulW-qi-122" edge="1">
          <mxGeometry relative="1" as="geometry"/>
        </mxCell>
        <mxCell id="366UzDetPdFdMRulW-qi-119" value="Re-Zip" style="rounded=0;whiteSpace=wrap;html=1;" parent="WIyWlLk6GJQsqaUBKTNV-1" vertex="1">
          <mxGeometry x="550" y="625" width="90" height="25" as="geometry"/>
        </mxCell>
        <mxCell id="366UzDetPdFdMRulW-qi-122" value="Push-S3" style="rounded=0;whiteSpace=wrap;html=1;" parent="WIyWlLk6GJQsqaUBKTNV-1" vertex="1">
          <mxGeometry x="550" y="685" width="90" height="25" as="geometry"/>
        </mxCell>
      </root>
    </mxGraphModel>
  </diagram>
</mxfile>
